<svg width="65" height="65" viewBox="0 0 65 65" fill="none" xmlns="http://www.w3.org/2000/svg">
<circle cx="32.5" cy="32.5" r="31.5" stroke="white" stroke-width="2"/>
<path d="M38.528 21.344V21.984C37.8027 22.0053 37.248 22.0907 36.864 22.24C36.5013 22.368 36.256 22.624 36.128 23.008C36 23.3707 35.936 23.9467 35.936 24.736V40.608C35.936 41.376 36 41.952 36.128 42.336C36.256 42.72 36.5013 42.976 36.864 43.104C37.248 43.232 37.8027 43.3173 38.528 43.36V44C38.0373 43.9573 37.4187 43.936 36.672 43.936C35.9467 43.9147 35.2107 43.904 34.464 43.904C33.632 43.904 32.8533 43.9147 32.128 43.936C31.4027 43.936 30.816 43.9573 30.368 44V43.36C31.0933 43.3173 31.6373 43.232 32 43.104C32.384 42.976 32.64 42.72 32.768 42.336C32.896 41.952 32.96 41.376 32.96 40.608V23.008L33.088 23.104L25.248 44.16H24.736L16.672 23.392V40.288C16.672 41.056 16.736 41.664 16.864 42.112C17.0133 42.5387 17.2907 42.848 17.696 43.04C18.1227 43.2107 18.752 43.3173 19.584 43.36V44C19.2 43.9573 18.6987 43.936 18.08 43.936C17.4613 43.9147 16.8747 43.904 16.32 43.904C15.7867 43.904 15.2427 43.9147 14.688 43.936C14.1547 43.936 13.7067 43.9573 13.344 44V43.36C14.0693 43.3173 14.6133 43.2107 14.976 43.04C15.36 42.848 15.616 42.5387 15.744 42.112C15.872 41.664 15.936 41.056 15.936 40.288V24.736C15.936 23.9467 15.872 23.3707 15.744 23.008C15.616 22.624 15.36 22.368 14.976 22.24C14.6133 22.0907 14.0693 22.0053 13.344 21.984V21.344C13.7067 21.3653 14.1547 21.3867 14.688 21.408C15.2427 21.4293 15.7867 21.44 16.32 21.44C16.7893 21.44 17.2693 21.4293 17.76 21.408C18.272 21.3867 18.6987 21.3653 19.04 21.344L26.304 40.48L25.76 40.736L32.96 21.44C33.216 21.44 33.4613 21.44 33.696 21.44C33.952 21.44 34.208 21.44 34.464 21.44C35.2107 21.44 35.9467 21.4293 36.672 21.408C37.4187 21.3867 38.0373 21.3653 38.528 21.344Z" fill="white"/>
<path d="M45.192 20.992C46.2587 20.992 47.0693 21.12 47.624 21.376C48.1787 21.6107 48.6693 21.8773 49.096 22.176C49.352 22.3253 49.5547 22.4427 49.704 22.528C49.8747 22.592 50.0347 22.624 50.184 22.624C50.3973 22.624 50.5467 22.5067 50.632 22.272C50.7387 22.0373 50.824 21.6853 50.888 21.216H51.624C51.6027 21.5787 51.5707 22.016 51.528 22.528C51.5067 23.0187 51.4853 23.68 51.464 24.512C51.464 25.3227 51.464 26.4 51.464 27.744H50.728C50.664 26.72 50.44 25.7387 50.056 24.8C49.672 23.8613 49.1067 23.0933 48.36 22.496C47.6347 21.8987 46.6747 21.6 45.48 21.6C44.3493 21.6 43.4107 21.9413 42.664 22.624C41.9387 23.3067 41.576 24.2027 41.576 25.312C41.576 26.272 41.8213 27.0827 42.312 27.744C42.8027 28.384 43.4533 28.9707 44.264 29.504C45.096 30.016 45.992 30.5707 46.952 31.168C48.0613 31.8507 49.0427 32.5333 49.896 33.216C50.7707 33.8773 51.4533 34.6133 51.944 35.424C52.456 36.2347 52.712 37.216 52.712 38.368C52.712 39.7333 52.4027 40.864 51.784 41.76C51.1653 42.656 50.344 43.328 49.32 43.776C48.296 44.224 47.1653 44.448 45.928 44.448C44.7973 44.448 43.9013 44.32 43.24 44.064C42.5787 43.808 42.0133 43.5413 41.544 43.264C41.0747 42.9653 40.712 42.816 40.456 42.816C40.2427 42.816 40.0827 42.9333 39.976 43.168C39.8907 43.4027 39.816 43.7547 39.752 44.224H39.016C39.0587 43.776 39.08 43.2533 39.08 42.656C39.1013 42.0373 39.112 41.2373 39.112 40.256C39.1333 39.2747 39.144 38.0373 39.144 36.544H39.88C39.9653 37.824 40.2 39.0187 40.584 40.128C40.9893 41.2373 41.5973 42.1333 42.408 42.816C43.24 43.4773 44.3387 43.808 45.704 43.808C46.408 43.808 47.0693 43.6693 47.688 43.392C48.328 43.0933 48.8507 42.6347 49.256 42.016C49.6613 41.376 49.864 40.5547 49.864 39.552C49.864 38.6773 49.6507 37.92 49.224 37.28C48.8187 36.6187 48.2427 36.0107 47.496 35.456C46.7493 34.88 45.8747 34.2933 44.872 33.696C43.8693 33.0773 42.9307 32.448 42.056 31.808C41.1813 31.168 40.4773 30.432 39.944 29.6C39.432 28.7467 39.176 27.7227 39.176 26.528C39.176 25.2693 39.4533 24.2347 40.008 23.424C40.584 22.592 41.3307 21.984 42.248 21.6C43.1653 21.1947 44.1467 20.992 45.192 20.992Z" fill="white"/>
</svg>
